<svg width="32" height="32" viewBox="0 0 32 32" fill="none" xmlns="http://www.w3.org/2000/svg">
<circle cx="16" cy="9.33333" r="4" fill="#F53333"/>
<circle cx="17.3333" cy="8" r="1.33333" fill="white"/>
<path d="M14.6667 15.8667V22.6667C14.6667 23.0203 14.8071 23.3594 15.0572 23.6095C15.3072 23.8595 15.6464 24 16 24C16.3536 24 16.6928 23.8595 16.9428 23.6095C17.1929 23.3594 17.3333 23.0203 17.3333 22.6667V15.8667C18.9521 15.5362 20.3904 14.6165 21.3696 13.2859C22.3488 11.9552 22.799 10.3084 22.6329 8.66463C22.4669 7.0209 21.6964 5.49737 20.4709 4.38942C19.2454 3.28147 17.6521 2.66803 16 2.66803C14.3479 2.66803 12.7546 3.28147 11.5291 4.38942C10.3036 5.49737 9.53314 7.0209 9.36709 8.66463C9.20104 10.3084 9.65124 11.9552 10.6304 13.2859C11.6096 14.6165 13.0479 15.5362 14.6667 15.8667ZM16 5.33333C16.7911 5.33333 17.5645 5.56793 18.2223 6.00745C18.8801 6.44698 19.3928 7.07169 19.6955 7.8026C19.9983 8.5335 20.0775 9.33777 19.9231 10.1137C19.7688 10.8896 19.3878 11.6024 18.8284 12.1618C18.269 12.7212 17.5563 13.1021 16.7804 13.2565C16.0044 13.4108 15.2002 13.3316 14.4693 13.0289C13.7384 12.7261 13.1136 12.2134 12.6741 11.5556C12.2346 10.8978 12 10.1245 12 9.33333C12 8.27247 12.4214 7.25505 13.1716 6.50491C13.9217 5.75476 14.9391 5.33333 16 5.33333ZM21.6133 19.2267C21.4382 19.1899 21.2576 19.188 21.0818 19.221C20.9059 19.254 20.7383 19.3214 20.5885 19.4192C20.4387 19.517 20.3096 19.6434 20.2086 19.7911C20.1077 19.9388 20.0368 20.1049 20 20.28C19.9632 20.4551 19.9613 20.6357 19.9943 20.8116C20.0274 20.9874 20.0947 21.155 20.1925 21.3048C20.2903 21.4546 20.4167 21.5837 20.5644 21.6847C20.7121 21.7857 20.8782 21.8566 21.0533 21.8933C24.08 22.4933 25.3333 23.5733 25.3333 24C25.3333 24.7733 22.0667 26.6667 16 26.6667C9.93333 26.6667 6.66667 24.7733 6.66667 24C6.66667 23.5733 7.92 22.4933 10.9467 21.84C11.1218 21.8032 11.2879 21.7323 11.4356 21.6314C11.5833 21.5304 11.7097 21.4013 11.8075 21.2515C11.9053 21.1017 11.9726 20.9341 12.0057 20.7582C12.0387 20.5824 12.0368 20.4018 12 20.2267C11.9632 20.0516 11.8923 19.8854 11.7914 19.7377C11.6904 19.59 11.5613 19.4637 11.4115 19.3659C11.2617 19.2681 11.0941 19.2007 10.9182 19.1677C10.7424 19.1346 10.5618 19.1366 10.3867 19.1733C6.33333 20.1067 4 21.8533 4 24C4 27.5067 10.04 29.3333 16 29.3333C21.96 29.3333 28 27.5067 28 24C28 21.8533 25.6667 20.1067 21.6133 19.2267Z" fill="#BDBDBD"/>
</svg>
